# xmcd
#
# Track frame offsets: 
#        150
#        13303
#        23367
#        34746
#        45748
#        58023
#        70253
#        81534
#        95095
#        107365
#        119193
#        131417
#        141729
#        154837
#        165147
#        176550
#        189331
#        200698
#        211575
#        221717
#        231963
#        241520
#        251350
#
# Disc length: 3509 seconds
#
# Revision: 0
# Processed by: cddbd v1.5.2PL0 Copyright (c) Steve Scherf et al.
# Submitted via: ExactAudioCopy v0.99pb4
#
DISCID=430db317
DTITLE=Ruth Brown - The Chronological Ruth Brown 1954 - 1956
DYEAR=2007
DGENRE=Blues
TTITLE0=Oh What A Dream
TTITLE1=Old Man River
TTITLE2=Please Don't Freeze
TTITLE3=Somebody Touched Me
TTITLE4=Bye Bye Young Men
TTITLE5=Mambo Baby
TTITLE6=My Heart Is Breaking Over You
TTITLE7=I Can See Everybody's Baby
TTITLE8=As Long As I'm Moving
TTITLE9=What'd I Say
TTITLE10=It's Love Baby
TTITLE11=I Gotta Have You
TTITLE12=Love Has Joined Us Together
TTITLE13=I'm Gettin' Right
TTITLE14=Smooth Operator
TTITLE15=I Want To Do More
TTITLE16=Sweet Baby Of Mine
TTITLE17=I Still Love You
TTITLE18=Mom Oh Mom
TTITLE19=I Want To Be Loved
TTITLE20=Lucky Lips
TTITLE21=When I Get You Baby
TTITLE22=One More Time
EXTD=
EXTT0=
EXTT1=
EXTT2=
EXTT3=
EXTT4=
EXTT5=
EXTT6=
EXTT7=
EXTT8=
EXTT9=
EXTT10=
EXTT11=
EXTT12=
EXTT13=
EXTT14=
EXTT15=
EXTT16=
EXTT17=
EXTT18=
EXTT19=
EXTT20=
EXTT21=
EXTT22=
PLAYORDER=
